<svg xmlns="http://www.w3.org/2000/svg" xmlns:xlink="http://www.w3.org/1999/xlink" width="500" zoomAndPan="magnify" viewBox="0 0 375 374.999991" height="500" preserveAspectRatio="xMidYMid meet" version="1.0"><defs><clipPath id="c9cf9e65b9"><path d="M 25.882812 234 L 328.132812 234 L 328.132812 310 L 25.882812 310 Z M 25.882812 234 " clip-rule="nonzero"/></clipPath></defs><rect x="-37.5" width="450" fill="#ffffff" y="-37.499999" height="449.999989" fill-opacity="1"/><rect x="-37.5" width="450" fill="#ffffff" y="-37.499999" height="449.999989" fill-opacity="1"/><path fill="#f25c05" d="M 161.578125 267.441406 C 122.882812 259.234375 90.046875 232.261719 70.109375 198.253906 C 51.347656 165.421875 34.933594 117.347656 52.523438 95.0625 C 64.25 89.199219 73.628906 102.09375 83.007812 109.132812 C 99.429688 125.554688 117.015625 146.65625 136.949219 159.558594 C 183.855469 194.742188 242.488281 170.113281 272.980469 124.378906 C 285.878906 109.132812 296.433594 90.371094 312.847656 82.164062 C 337.472656 76.300781 333.953125 116.171875 330.433594 137.28125 C 316.363281 213.5 243.46875 281.9375 163.726562 267.863281 Z M 170.957031 150.179688 C 105.289062 129.066406 146.335938 49.332031 208.484375 54.019531 C 242.492188 56.367188 261.253906 96.234375 244.835938 124.378906 C 231.9375 149.007812 198.820312 159.042969 173.027344 150.832031 Z M 170.957031 150.179688 " fill-opacity="1" fill-rule="nonzero"/><g clip-path="url(#c9cf9e65b9)"><path fill="#03738c" d="M 89.0625 260.238281 C 103.785156 253.804688 119.214844 254.699219 134.460938 257.300781 C 154.339844 260.695312 172.832031 268.539062 191.027344 277.015625 C 198.433594 280.46875 205.785156 284.058594 213.253906 287.378906 C 248.6875 303.117188 284.890625 305.839844 321.945312 293.59375 C 323.488281 293.082031 327.328125 292.953125 328.375 293.8125 C 312.753906 303.21875 295.9375 307.191406 278.40625 308.761719 C 252.917969 311.046875 228.796875 305.746094 205.753906 295.0625 C 191.289062 288.355469 176.984375 281.320312 162.5625 274.53125 C 148.824219 268.070312 134.636719 263.214844 119.550781 260.667969 C 109.328125 258.945312 99.363281 260.480469 89.0625 260.238281 Z M 30.960938 286.515625 C 43.355469 290.5625 55.835938 290.253906 68.421875 287.460938 C 77.964844 285.34375 87.203125 282.015625 97.113281 281.34375 C 115.0625 280.125 131.972656 284.246094 148.613281 290.273438 C 162.808594 295.414062 176.769531 301.246094 191.5 304.796875 C 194 305.398438 194.96875 305.3125 199.683594 303.703125 C 184.09375 297.535156 170.089844 289.222656 155.785156 281.496094 C 129.078125 267.074219 101.890625 263.78125 73.496094 276.671875 C 61.035156 282.328125 47.691406 284.105469 33.976562 283.066406 C 31.832031 282.902344 28.382812 282.554688 25.976562 283.371094 C 27.105469 284.921875 29.421875 286.011719 30.960938 286.515625 Z M 313.890625 276.757812 C 295.101562 282.910156 276.242188 286.730469 256.175781 283.613281 C 239.296875 280.992188 224.03125 274.597656 209.097656 266.964844 C 194.117188 259.308594 178.636719 253.113281 162.097656 249.789062 C 158.167969 249 154.1875 247.621094 148.988281 250.628906 C 168.699219 256.425781 186.476562 264.175781 203.1875 274.304688 C 209.816406 278.324219 216.585938 282.140625 223.453125 285.753906 C 260.058594 305.011719 293.453125 295.21875 325.453125 274.265625 C 320.761719 273.808594 317.644531 275.53125 313.890625 276.757812 Z M 316.75 256.800781 C 299.359375 263.976562 281.472656 266.53125 262.789062 263.503906 C 248.09375 261.121094 234.53125 255.472656 221.082031 249.535156 C 206.828125 243.246094 192.3125 237.871094 176.988281 234.878906 C 174.027344 234.296875 170.984375 233.515625 166.453125 236.292969 C 187.347656 241.402344 204.011719 251.761719 221.160156 261.148438 C 230.132812 266.058594 239.539062 270.066406 249.5 272.636719 C 277.148438 279.773438 301.683594 272.855469 325.898438 256.097656 C 321.574219 255.417969 318.878906 255.921875 316.75 256.800781 Z M 316.75 256.800781 " fill-opacity="1" fill-rule="nonzero"/></g></svg>